# xmcd
#
# Track frame offsets:
#	150
#	15691
#	25436
#	38940
#	46490
#	59165
#	71438
#	86783
#	98546
#	114943
#	131921
#	142012
#	154541
#	173132
#	185948
#	200141
#	213892
#
# Disc length: 3107
#
# Revision: 1
# Processed by: cddbd v1.5.1PL0 Copyright (c) Steve Scherf et al.
# Submitted via: audiograbber 1.83.01
# Normalized: r0:TDELIM( - )
#
DISCID=fe0c2111
DTITLE=Various Artist - Truck Driving Songs CD 5
DYEAR=1980
DGENRE=Country
TTITLE0=I'm A Truck - 01 - Red Simpson
TTITLE1=Looking At The World Through A Windshield - 02 - Del Reeves
TTITLE2=Big Bad John - 03 - Jimmy Dean
TTITLE3=Come In Stranger - 04 - Johhny Cash
TTITLE4=Freightline Fever - Ferlin Husky
TTITLE5=I Fought The Law - 06 - Lee Conway
TTITLE6=Country Bumkin - 07 - Col Smith
TTITLE7=Once A Day - 08 - Connie Smith
TTITLE8=Walk A Mile in My Shoes - 09 - Joe South
TTITLE9=Dreaming My Dreams With You - 10 - Colleen Hewett
TTITLE10=Hello Walls - 11 - Faron Young
TTITLE11=Carroll County Accident - 12 - Bobbie And Laurie
TTITLE12=Ginger Man - 13 - Brian Cadd
TTITLE13=Old Man Emu - 14 - John Williamson
TTITLE14=You've Never Been This Far Before - 15 - Conway Twitty
TTITLE15=Cross The Brazos At Waco - 16 - Billy Walker
TTITLE16=Santa Never Made It Into Darwin - 17 - Bill And Boyd
EXTD=
EXTT0=
EXTT1=
EXTT2=
EXTT3=
EXTT4=
EXTT5=
EXTT6=
EXTT7=
EXTT8=
EXTT9=
EXTT10=
EXTT11=
EXTT12=
EXTT13=
EXTT14=
EXTT15=
EXTT16=
PLAYORDER=
